<svg xmlns="http://www.w3.org/2000/svg" viewBox="0 0 1365.93 377.57"><defs><style>.cls-1{fill:#fff;}.cls-2{fill:#79552d;}</style></defs><title>Asset 1</title><g id="Layer_2" data-name="Layer 2"><g id="Layer_1-2" data-name="Layer 1"><path class="cls-1" d="M198.36,328.89q0,.73,0,2.19l-.47.6a58.89,58.89,0,0,1-15,1.54q-1.67,0-5.06.07t-5.1.06a16.18,16.18,0,0,0,3.9,10.42,12.52,12.52,0,0,0,10,4.42q4.12,0,9.78-2.83l1,1.24-1.89,4.24a24.83,24.83,0,0,1-13.6,4q-9.65,0-15-5.45t-5.34-15.53q0-12,5.7-16.38,7.89-6.09,15-6.09,7.68,0,11.88,4.42t4.29,13.08m-11.19-1.12q0-11.58-7.21-11.58-7.59,0-7.59,11.5v.94a67.19,67.19,0,0,0,8.84.39,40.74,40.74,0,0,0,5.92-.39c0-.4,0-.69,0-.86"/><path class="cls-1" d="M228.25,352.82l-.43.43q-4.08-.3-11.75-.3t-11.71.3l-.43-.43V350.2l.43-.43q4.12-.13,5.1-.65c.57-.26.88-.94.94-2.06q.3-5.57.3-12V329q0-8.33-.64-9.87c-.23-.57-.85-.93-1.85-1.07q-.51-.09-3.73-.21l-.43-.43V315l.43-.47a71.33,71.33,0,0,0,16.6-3.56l.9.56q-.56,7.81-.56,13.17v13.68q0,3.13.3,8.71c.06,1.12.37,1.8.95,2.06s2.36.56,5.1.65l.47.43m-5.92-53.36a6.44,6.44,0,0,1-1.93,4.7,6.53,6.53,0,0,1-9.31,0,6.67,6.67,0,0,1,4.68-11.39,6.34,6.34,0,0,1,4.61,1.93,6.43,6.43,0,0,1,2,4.76"/><path class="cls-1" d="M282.51,352.78l-.43.47q-4.72-.3-8-.3-3,0-8.75.3l-.43-.43q.77-9.57.77-14.76v-8.41q0-10.46-7.55-10.47a7.57,7.57,0,0,0-6.18,2.7,7.18,7.18,0,0,0-1.89,4.59v8q0,11.11.56,13.64.34,1.5,5,1.59l.43.43v2.61l-.43.43q-3.64-.26-10.89-.26-7.68,0-11.71.3l-.43-.43V350.2l.43-.43q4.12-.13,5.1-.64t.94-2.06q.3-5.57.3-12V329q0-8.57-.64-9.87a2.27,2.27,0,0,0-1.84-1.07q-.51-.09-3.73-.22l-.43-.43V315l.43-.47A73.88,73.88,0,0,0,249.4,311l.94.56-.09,7.2,7.38-6.17a16.22,16.22,0,0,1,6.22-1.16q6.82,0,10.21,4.12,2.74,3.35,2.74,9.82,0,.73-.17,6t-.17,7.46q0,6.48.21,8.25a2.94,2.94,0,0,0,1,2.25q.77.47,4.46.56l.39.43"/><path class="cls-1" d="M325.19,328.89q0,.73,0,2.19l-.47.6a58.89,58.89,0,0,1-15,1.54q-1.67,0-5.06.07t-5.1.06a16.19,16.19,0,0,0,3.9,10.42,12.52,12.52,0,0,0,10,4.42q4.12,0,9.78-2.83l1,1.24-1.89,4.24a24.83,24.83,0,0,1-13.6,4q-9.65,0-15-5.45t-5.34-15.53q0-12,5.7-16.38,7.89-6.09,15-6.09,7.68,0,11.88,4.42t4.29,13.08M314,327.77q0-11.58-7.21-11.58-7.59,0-7.59,11.5v.94A67.21,67.21,0,0,0,308,329a40.73,40.73,0,0,0,5.92-.39c0-.4,0-.69,0-.86"/><path class="cls-1" d="M364.26,339.48a13.63,13.63,0,0,1-5.21,11.13q-5.21,4.22-13.62,4.22a36.25,36.25,0,0,1-12.78-2.57l-.47-.64q.39-3.95.47-6.13l.21-5.4.43-.47h2.53l.52.47a45,45,0,0,0,.39,5.66,11.55,11.55,0,0,0,9.56,4.68,9.33,9.33,0,0,0,6-1.84,6,6,0,0,0,2.27-4.93,5,5,0,0,0-3.43-5.19,45.65,45.65,0,0,0-5.79-1.46q-7.08-1.5-9.48-3.43-3.65-2.91-3.65-8.62a12.39,12.39,0,0,1,4.5-10q4.72-3.94,12.78-3.94A25,25,0,0,1,361,313.32l.39.68a68.26,68.26,0,0,0-.73,9.91l-.47.43H357.7l-.47-.43a32.24,32.24,0,0,0-.6-5q-2.7-3.43-7.85-3.43a8.83,8.83,0,0,0-5.49,1.63,5.13,5.13,0,0,0-2.14,4.29q0,3.56,3.65,4.76,1.63.52,6.35,1.46,7.21,1.42,9.52,3.26,3.6,2.87,3.6,8.62"/><path class="cls-1" d="M418.09,294.79V293l.34-.39a54.67,54.67,0,0,0,13.81-3.17l.82.51q-.47,4.93-.47,19.77v28.1q0,4.33.15,7.57a11.25,11.25,0,0,0,.54,3.84,2.76,2.76,0,0,0,1.27,1,22.45,22.45,0,0,0,5,.73l.39.34v1.63l-.39.38q-4.63-.3-7.21-.3-2.32,0-6.61.3l-.47-.47q.13-4.21.13-5.88,0-.21,0-1.63-2.36,1.71-4.72,3.82-3.47,3.09-4.55,3.86a12.92,12.92,0,0,1-5.62,1,17,17,0,0,1-10.06-2.92,16.09,16.09,0,0,1-5.9-7.44,25.44,25.44,0,0,1-1.76-9.29,24.53,24.53,0,0,1,1.82-9.33,13.14,13.14,0,0,1,5.19-6.54q3.37-2.06,7.33-4.27A16.07,16.07,0,0,1,415,312a21.29,21.29,0,0,1,10.38,2.7l-.17-9.57q-.09-5-.26-6.93a6.69,6.69,0,0,0-.43-2.32,1.54,1.54,0,0,0-.88-.54,38.88,38.88,0,0,0-5.21-.17M425.43,322a19.14,19.14,0,0,0-5.9-4.59,14.66,14.66,0,0,0-6.5-1.59,12.39,12.39,0,0,0-6.71,2,10.9,10.9,0,0,0-4.48,5.79,24.61,24.61,0,0,0-1.37,8.34q0,7.5,3.8,12.05a11.92,11.92,0,0,0,9.54,4.55,10.68,10.68,0,0,0,5.56-1.44,11.88,11.88,0,0,0,4-3.88,11.24,11.24,0,0,0,1.82-4.89q.26-2.44.26-9Z"/><path class="cls-1" d="M480.8,346.65l-1.37,3.09a27.16,27.16,0,0,1-8,3.73,26.42,26.42,0,0,1-6.24.86,24.09,24.09,0,0,1-9.76-2,16.39,16.39,0,0,1-7.51-6.82,22,22,0,0,1-2.89-11.58,27.53,27.53,0,0,1,1.12-8.13,20.16,20.16,0,0,1,2.34-5.39,18.17,18.17,0,0,1,4.14-3.9,27.22,27.22,0,0,1,6.18-3.43,19,19,0,0,1,7-1.29,16.9,16.9,0,0,1,9.07,2.43,13.32,13.32,0,0,1,5.51,6.2,20.52,20.52,0,0,1,1.59,8,25,25,0,0,1-.13,2.57l-.47.47a47.75,47.75,0,0,1-7.85.86q-4.93.21-6.52.21H453.31q.08,8.88,4.46,13.08a14.9,14.9,0,0,0,10.72,4.2,16.39,16.39,0,0,0,5.77-1,35.7,35.7,0,0,0,5.85-2.87M453.31,329.1q.77.13,5.94.3t7.66.17a66.13,66.13,0,0,0,7.25-.21q0-1,0-1.59,0-6.65-2.7-9.89a9.1,9.1,0,0,0-7.38-3.24,9.53,9.53,0,0,0-8,3.64q-2.85,3.65-2.85,10.81"/><path class="cls-1" d="M522.7,312.07l.82.56q-.26,2.83-.34,6.77l4.07-3.73q1.72-1.59,2.27-2a8.89,8.89,0,0,1,2.62-1,15.33,15.33,0,0,1,4.33-.6,13.3,13.3,0,0,1,7.5,2.12,12.6,12.6,0,0,1,4.76,5.86,89.3,89.3,0,0,1,6.76-6.09,13.31,13.31,0,0,1,3.07-1.22,14.7,14.7,0,0,1,4.2-.62,13.36,13.36,0,0,1,6.22,1.46,12.33,12.33,0,0,1,4.51,3.82,10.59,10.59,0,0,1,2,5.11q.28,2.75.28,7.55v4.5q0,.73.26,10.68.09,4.08.9,4.85t5.27.77l.34.34v1.84l-.34.34q-5.45-.34-7.38-.34-1.07,0-6.22.34l-.56-.47q.56-5.58.56-14.54v-5.15a47.62,47.62,0,0,0-.64-9.54,7.56,7.56,0,0,0-3-4.46,9.22,9.22,0,0,0-5.62-1.74,10.33,10.33,0,0,0-4.33.92,10.87,10.87,0,0,0-3.62,2.74,6.42,6.42,0,0,0-1.78,3.39q-.17,1.57-.17,5.77v5.36q0,1.89.17,7.08a57.6,57.6,0,0,0,.36,6,2.28,2.28,0,0,0,.6,1.22,1.92,1.92,0,0,0,.94.47q.53.11,4.61.36l.39.34v1.8l-.34.38q-5.36-.34-10.33-.34-4.59,0-10.3.34l-.39-.38v-1.8l.39-.34q4.16-.25,4.7-.39a2,2,0,0,0,.94-.54,2.26,2.26,0,0,0,.56-1.24q.15-.84.34-5.53t.19-7.1v-4.89a32.07,32.07,0,0,0-.66-7.46,8.25,8.25,0,0,0-2.85-4.42,8.36,8.36,0,0,0-5.49-1.8,10.79,10.79,0,0,0-4.7,1,11,11,0,0,0-3.47,2.49,6.74,6.74,0,0,0-1.67,2.77,29.5,29.5,0,0,0-.32,5.57v6.35q0,1.89.17,7.08a56.59,56.59,0,0,0,.36,6,2.26,2.26,0,0,0,.6,1.22,1.93,1.93,0,0,0,.94.47c.36.07,1.89.2,4.61.36l.39.34v1.8l-.34.38q-5.36-.34-10.34-.34t-10.29.34l-.39-.38v-1.8l.39-.34q4.16-.25,4.7-.39a2,2,0,0,0,.94-.54,2.29,2.29,0,0,0,.56-1.24q.15-.84.34-5.53t.19-7.1v-8.45q0-1.71-.17-4.67c-.12-2-.21-3.19-.28-3.65a1.35,1.35,0,0,0-.67-1,5.14,5.14,0,0,0-2.23-.32l-3.6,0-.38-.34v-1.84l.34-.34a55.89,55.89,0,0,0,13.81-3.22"/><path class="cls-1" d="M599.31,312.07l.82.56q-.47,5.62-.47,14.28v10q0,5.49.84,7.63a6.22,6.22,0,0,0,2.89,3.28,9.93,9.93,0,0,0,4.89,1.14,13.15,13.15,0,0,0,5.71-1.22,11.85,11.85,0,0,0,4.31-3.45,14.08,14.08,0,0,0,2-3,21.7,21.7,0,0,0,.34-4.33l.13-4.8v-4.63q0-1.71-.17-4.67t-.28-3.65a1.35,1.35,0,0,0-.66-1,5.15,5.15,0,0,0-2.23-.32l-3.6,0-.39-.34v-1.84l.34-.34a55.93,55.93,0,0,0,13.81-3.22l.81.56q-.47,5.62-.47,14.28v7.55q0,.64.21,10.51a15.91,15.91,0,0,0,.45,4.44,2.23,2.23,0,0,0,1,1.12,12.39,12.39,0,0,0,3.82.32h1.2l.39.34v1.72l-.34.38q-6-.34-8.11-.34-2.62,0-6,.3l-.39-.34q.26-4.38.39-7.42a65.84,65.84,0,0,0-6.18,5.62,10.24,10.24,0,0,1-3.82,2.23,16.57,16.57,0,0,1-5.66.9,15.27,15.27,0,0,1-7.48-1.52,8.52,8.52,0,0,1-3.8-4.2q-1.12-2.68-1.12-9.25l0-3.39v-8.36q0-1.71-.17-4.67t-.28-3.65a1.34,1.34,0,0,0-.66-1,5.15,5.15,0,0,0-2.23-.32l-3.6,0-.39-.34v-1.84l.34-.34a55.92,55.92,0,0,0,13.81-3.22"/><path class="cls-1" d="M641.77,340.34h1.84l.39.38a58.15,58.15,0,0,0,.43,6.18,9.27,9.27,0,0,0,4.59,3.28,17.68,17.68,0,0,0,6.43,1.26,10.48,10.48,0,0,0,7.27-2.44,7.58,7.58,0,0,0,2.72-5.83,5.27,5.27,0,0,0-1-3.2,7.15,7.15,0,0,0-3-2.23,46.35,46.35,0,0,0-7.14-2.08q-4.42-1-6.18-1.61a10.32,10.32,0,0,1-3.39-2,9,9,0,0,1-2.49-3.37,11.59,11.59,0,0,1,3.71-13.6,18.35,18.35,0,0,1,11.39-3.45,27.66,27.66,0,0,1,6.26.79A35.32,35.32,0,0,1,668.8,314l.39.6a70.37,70.37,0,0,0-.43,9l-.39.39h-1.72l-.39-.39a20,20,0,0,0-.47-3.67,5.52,5.52,0,0,0-1.54-2.27,9.8,9.8,0,0,0-3.52-2.06,13.8,13.8,0,0,0-4.8-.83,11,11,0,0,0-4.4.77,6.65,6.65,0,0,0-2.87,2.34,6.46,6.46,0,0,0-1.09,3.8,6.25,6.25,0,0,0,.67,2.92,5.07,5.07,0,0,0,2,2.08,10.34,10.34,0,0,0,2.87,1.14l4.67,1.2a65.33,65.33,0,0,1,8.6,2.53,8.54,8.54,0,0,1,4,3.24,9.4,9.4,0,0,1,1.42,5.26A13,13,0,0,1,667,350.2q-4.89,4.25-12.57,4.25a46.85,46.85,0,0,1-6.71-.6,69.27,69.27,0,0,1-6.84-1.33l-.21-.56.43-2.87a20.9,20.9,0,0,0,.26-2.68q0-1.35.09-5.68"/><path class="cls-1" d="M690.67,312.07l.81.56q-.47,5.62-.47,14.28v9.69q0,.94.17,6.07a55.85,55.85,0,0,0,.36,6,2.54,2.54,0,0,0,.58,1.24,1.77,1.77,0,0,0,.94.49q.56.11,4.63.36l.39.34v1.8l-.34.38q-5.36-.34-10.34-.34t-10.29.34l-.39-.38v-1.8l.39-.34q4.16-.26,4.7-.39a2,2,0,0,0,.94-.54,2.29,2.29,0,0,0,.56-1.24q.15-.84.34-5.53t.19-7.1v-8.45q0-1.71-.17-4.68t-.28-3.64a1.34,1.34,0,0,0-.66-1,5.11,5.11,0,0,0-2.23-.32l-3.6,0-.39-.34v-1.84l.34-.34a56,56,0,0,0,13.81-3.22M687,292.9a4.83,4.83,0,0,1,4.85,4.85,4.83,4.83,0,0,1-4.85,4.8,4.73,4.73,0,0,1-3.41-1.39,4.57,4.57,0,0,1-1.44-3.41,4.64,4.64,0,0,1,1.44-3.43A4.7,4.7,0,0,1,687,292.9"/><path class="cls-1" d="M737.47,348.36l-1.72,2.87a25.18,25.18,0,0,1-12.35,3q-9.44,0-14.58-5.62t-5.15-14.5a26.85,26.85,0,0,1,.88-7.19,18.63,18.63,0,0,1,2.23-5.21,12.47,12.47,0,0,1,3-3.26,55.27,55.27,0,0,1,5.51-3.34,40.21,40.21,0,0,1,5.85-2.81,17.69,17.69,0,0,1,5.45-.67,21,21,0,0,1,10.9,2.53q-.81,4.85-1.24,10.81l-.39.34h-1.76l-.39-.39a31.42,31.42,0,0,0-.47-4.85q-.3-1.24-3.41-2.66a15.84,15.84,0,0,0-6.63-1.41,13,13,0,0,0-6.26,1.48,9.28,9.28,0,0,0-4.14,4.85,21,21,0,0,0-1.39,8,26.89,26.89,0,0,0,1.12,7.7,19.93,19.93,0,0,0,2.94,6.22,13.23,13.23,0,0,0,4.82,4,14.74,14.74,0,0,0,6.69,1.5,17.12,17.12,0,0,0,4.52-.6,30.83,30.83,0,0,0,5.08-2"/><path class="cls-1" d="M742.14,333.31a24.06,24.06,0,0,1,2.1-9.84,19.34,19.34,0,0,1,7.31-8.19,21.88,21.88,0,0,1,12.37-3.45q9,0,14.67,5.68t5.66,14.61a21.95,21.95,0,0,1-22.18,22.52,18.51,18.51,0,0,1-10.72-3.24,20.17,20.17,0,0,1-7-7.91,23.1,23.1,0,0,1-2.25-10.16m8.11-3a34.65,34.65,0,0,0,1.54,10.75,16.5,16.5,0,0,0,4.89,7.61,11.37,11.37,0,0,0,7.63,2.87,10.39,10.39,0,0,0,8.37-4q3.3-4,3.3-12.08,0-9.14-3.58-15a11.42,11.42,0,0,0-10.32-5.83,10.4,10.4,0,0,0-8.71,4q-3.13,4-3.13,11.62"/><path class="cls-1" d="M803.22,289.43l.81.51q-.47,4.93-.47,19.77v26.89q0,.94.17,6.07a56.4,56.4,0,0,0,.36,6,2.54,2.54,0,0,0,.58,1.24,1.78,1.78,0,0,0,.94.49c.37.07,1.91.19,4.63.36l.38.34v1.8l-.34.39q-5.36-.34-10.34-.34t-10.29.34l-.39-.39v-1.8l.39-.34q4.16-.26,4.7-.39a2,2,0,0,0,.94-.54,2.29,2.29,0,0,0,.56-1.24q.15-.84.34-5.53t.19-7.1V313.75l-.17-9.09q-.13-4.76-.28-6.61a5.86,5.86,0,0,0-.41-2.19,1.59,1.59,0,0,0-.9-.52,39,39,0,0,0-5.19-.17l-.39-.39V293l.34-.38a54.83,54.83,0,0,0,13.81-3.17"/><path class="cls-1" d="M815.66,333.31a24.08,24.08,0,0,1,2.1-9.84,19.37,19.37,0,0,1,7.31-8.19,21.88,21.88,0,0,1,12.38-3.45q9,0,14.67,5.68t5.66,14.61a21.95,21.95,0,0,1-22.17,22.52,18.5,18.5,0,0,1-10.72-3.24,20.16,20.16,0,0,1-7-7.91,23.09,23.09,0,0,1-2.25-10.16m8.11-3a34.65,34.65,0,0,0,1.54,10.75,16.5,16.5,0,0,0,4.89,7.61,11.37,11.37,0,0,0,7.64,2.87,10.38,10.38,0,0,0,8.36-4q3.3-4,3.3-12.08,0-9.14-3.58-15a11.42,11.42,0,0,0-10.32-5.83,10.4,10.4,0,0,0-8.71,4q-3.13,4-3.13,11.62"/><path class="cls-1" d="M908,315l.34.77q-1.76,2.7-2.19,3.51h-8a10.74,10.74,0,0,1,1.2,4.93,13.44,13.44,0,0,1-1.39,5.92,14.21,14.21,0,0,1-3.88,4.89,20.45,20.45,0,0,1-5.64,3.22,20.07,20.07,0,0,1-7.18,1.2h-2a20.12,20.12,0,0,0-3.26,3,3.36,3.36,0,0,0-.73,2,2.7,2.7,0,0,0,1.74,2.66q1.74.77,7.18.77l9.61-.13a17.86,17.86,0,0,1,7,1.07,8.34,8.34,0,0,1,3.92,3.84,12.08,12.08,0,0,1,1.5,5.86,17.12,17.12,0,0,1-3.07,9.41,19.12,19.12,0,0,1-8.86,7.14A31.45,31.45,0,0,1,882,377.57a29.1,29.1,0,0,1-7-.81,18.06,18.06,0,0,1-5.75-2.47,12.46,12.46,0,0,1-4-4.31,11.11,11.11,0,0,1-1.5-5.53,12.63,12.63,0,0,1,.47-3.33,13.33,13.33,0,0,1,1.8-3.75l7.76-4.33q-3.73-1.16-4.7-2.29a4.08,4.08,0,0,1-1-2.73,9.19,9.19,0,0,1,1.07-3.86l6.91-5q-6.09-1.58-8.21-4.76a12.24,12.24,0,0,1-2.12-6.95,15.25,15.25,0,0,1,1.5-6.63,11.84,11.84,0,0,1,4.52-5,27,27,0,0,1,6.78-3,24.72,24.72,0,0,1,6.84-1.09,17.25,17.25,0,0,1,10.21,3.48q7.76,0,12.39-.17m-22.3,38.73q-6.91,0-8,.17a8.7,8.7,0,0,0-3,1.46,9.85,9.85,0,0,0-3.15,3.49,10.07,10.07,0,0,0-1.22,5,9.85,9.85,0,0,0,3.6,7.89q3.6,3,9.61,3a18.5,18.5,0,0,0,8.32-1.89,12.83,12.83,0,0,0,5.64-5.06,12.25,12.25,0,0,0,1.82-6.09,8.22,8.22,0,0,0-1.52-5,6.15,6.15,0,0,0-3.95-2.53,51.37,51.37,0,0,0-8.21-.45M873.13,325a17.43,17.43,0,0,0,1,5.62,8.66,8.66,0,0,0,3.32,4.55,9,9,0,0,0,5.17,1.54,9.52,9.52,0,0,0,6.58-2.49q2.77-2.49,2.77-7.77a13.52,13.52,0,0,0-2.53-8,8.27,8.27,0,0,0-7.16-3.56,9,9,0,0,0-6.54,2.55q-2.64,2.55-2.64,7.57"/><path class="cls-1" d="M925.55,312.07l.81.56q-.47,5.62-.47,14.28v9.69q0,.94.17,6.07a55.76,55.76,0,0,0,.36,6,2.52,2.52,0,0,0,.58,1.24,1.77,1.77,0,0,0,.94.49q.56.11,4.63.36l.39.34v1.8l-.34.38q-5.36-.34-10.34-.34t-10.29.34l-.39-.38v-1.8l.39-.34q4.16-.26,4.7-.39a2,2,0,0,0,.94-.54,2.29,2.29,0,0,0,.56-1.24q.15-.84.34-5.53t.19-7.1v-8.45q0-1.71-.17-4.68t-.28-3.64a1.34,1.34,0,0,0-.66-1,5.12,5.12,0,0,0-2.23-.32l-3.6,0-.39-.34v-1.84l.34-.34a56.07,56.07,0,0,0,13.81-3.22M921.9,292.9a4.83,4.83,0,0,1,4.85,4.85,4.62,4.62,0,0,1-1.42,3.39,4.67,4.67,0,0,1-3.43,1.41,4.72,4.72,0,0,1-3.41-1.39,4.57,4.57,0,0,1-1.44-3.41,4.64,4.64,0,0,1,1.44-3.43,4.7,4.7,0,0,1,3.41-1.41"/><path class="cls-1" d="M944.2,323.87l-1.67-.43-.34-.43v-5.32Q949.82,312,957,312a16.48,16.48,0,0,1,8.2,1.85,11.56,11.56,0,0,1,4.73,4.61,13.74,13.74,0,0,1,1.46,6.46l-.22,8.62v12.78a7.81,7.81,0,0,0,.37,3.17,1.85,1.85,0,0,0,.84.75,7.19,7.19,0,0,0,1.76.32l2.44.22.34.38v1.72l-.34.34c-2.09-.17-4-.26-5.83-.26s-3.78.09-6.19.26l-.65-.6.17-6.91L954.75,353a13.18,13.18,0,0,1-5.15,1,13,13,0,0,1-5.9-1.24,8.9,8.9,0,0,1-3.78-3.48,10.5,10.5,0,0,1-1.31-5.4q0-6.3,3.95-9.84t21.53-6q0-6.35-2.83-8.94a10.8,10.8,0,0,0-7.59-2.6,13.38,13.38,0,0,0-4.52.73,5.81,5.81,0,0,0-2.34,1.18q-.3.45-2.32,5.25m19.6,7q-12,2-15,4.33t-3,7.16q0,6.69,6.65,6.69,5.7,0,11.28-6.61Z"/><polyline class="cls-1" points="97.38 288.71 43.1 374.1 72.01 374.1 126.29 288.71"/><polyline class="cls-1" points="83.19 288.71 54.28 288.71 0 374.1 28.91 374.1"/><rect class="cls-1" x="680.27" y="194.7" width="41.31" height="12.79"/><polyline class="cls-1" points="745.55 247.29 745.55 124.28 759.86 124.28 759.86 234.33 814.12 234.33 814.12 247.29"/><polyline class="cls-1" points="834.99 247.29 834.99 124.28 849.29 124.28 849.29 234.33 903.55 234.33 903.55 247.29"/><path class="cls-1" d="M1031.19,185.62q0,29.53-14.93,46.44T974.74,249q-27.2,0-42-16.62T918,185.45q0-30,14.81-46.57t42.07-16.53q26.51,0,41.4,16.83t14.89,46.44m-98,0q0,25,10.64,37.9t30.93,12.91q20.44,0,30.88-12.87T1016,185.62q0-24.82-10.39-37.65T974.9,135.14q-20.45,0-31.09,12.91t-10.64,37.56"/><path class="cls-1" d="M1072.92,196.13v51.15h-14.3v-123h33.73q22.62,0,33.45,8.66T1136.61,159q0,24.4-24.73,33l33.4,55.27h-16.92l-29.78-51.15m-25.65-12.28h19.6q15.13,0,22.21-6t7.07-18q0-12.2-7.2-17.58t-23.09-5.38h-18.59Z"/><path class="cls-1" d="M1217.79,135.31q-20.28,0-32,13.5t-11.74,37q0,24.15,11.32,37.31t32.26,13.17q12.88,0,29.36-4.63v12.53q-12.77,4.79-31.54,4.79-27.19,0-41.94-16.49t-14.77-46.86q0-19,7.12-33.32a51.07,51.07,0,0,1,20.52-22q13.43-7.74,31.6-7.74,19.33,0,33.81,7.07l-6.06,12.28a65.17,65.17,0,0,0-27.93-6.56"/><path class="cls-1" d="M1351.12,247.29l-15.31-39.12h-49.29l-15.15,39.12h-14.46l48.61-123.51h12l48.37,123.51m-34.58-52L1317,157.18q-2.75-7.23-5.72-17.75a159,159,0,0,1-5.3,17.75l-14.46,38.11Z"/><polyline class="cls-1" points="86.58 247.66 18.2 247.66 18.2 125 86.58 125 86.58 137.67 32.46 137.67 32.46 177.19 83.3 177.19 83.3 189.78 32.46 189.78 32.46 234.91 86.58 234.91"/><polyline class="cls-1" points="38.89 235.03 30.8 247.75 35.11 247.75 43.2 235.03"/><polyline class="cls-1" points="36.78 235.03 32.47 235.03 24.38 247.75 28.69 247.75"/><polyline class="cls-1" points="23.05 85.92 13.1 85.92 13.1 0.35 60.8 0.35 60.8 9.19 23.05 9.19 23.05 40.51 58.52 40.51 58.52 49.34 23.05 49.34"/><polyline class="cls-1" points="122.67 85.92 74.97 85.92 74.97 0.35 122.67 0.35 122.67 9.19 84.92 9.19 84.92 36.76 120.39 36.76 120.39 45.53 84.92 45.53 84.92 77.03 122.67 77.03"/><path class="cls-1" d="M151.58,50.34V85.92h-10V.35h23.47q15.74,0,23.27,6t7.52,18.14q0,17-17.21,22.95l23.24,38.46H190.16L169.44,50.34m-17.85-8.55h13.64q10.54,0,15.45-4.18t4.92-12.55q0-8.49-5-12.24T164.52,9.07H151.58Z"/><path class="cls-1" d="M225.68,50.34V85.92h-10V.35H239.2q15.75,0,23.27,6T270,24.52q0,17-17.21,22.95L276,85.92H264.26L243.53,50.34m-17.85-8.55h13.64q10.54,0,15.45-4.18t4.92-12.55q0-8.49-5-12.24T238.62,9.07H225.68Z"/><path class="cls-1" d="M343.62,85.92,333,58.71h-34.3L288.14,85.92H278.07L311.9,0h8.37l33.66,85.92M329.87,49.75l-10-26.51q-1.93-5-4-12.35a111.29,111.29,0,0,1-3.69,12.35L302.18,49.75Z"/><path class="cls-1" d="M432.53,85.92H421.18L374.41,14.11h-.47q.94,12.64.94,23.18V85.92h-9.19V.35h11.24l46.65,71.52H424q-.12-1.58-.53-10.16t-.29-12.26V.35h9.31"/><polyline class="cls-1" points="33.97 247.75 18.2 247.75 18.2 125.09 86.58 125.09 86.58 137.76 32.46 137.76 32.46 177.28 83.3 177.28 83.3 189.86 32.46 189.86 32.46 235 42.2 235"/><path class="cls-1" d="M183,215.11q0,16.19-11.75,25.25t-31.88,9.06q-21.81,0-33.56-5.62V230a88,88,0,0,0,16.44,5,86.6,86.6,0,0,0,17.62,1.84q14.26,0,21.48-5.41t7.22-15.06A19.35,19.35,0,0,0,166,206q-2.56-4.07-8.56-7.51t-18.25-7.8q-17.12-6.12-24.46-14.52t-7.34-21.9q0-14.18,10.65-22.57t28.19-8.39A83.11,83.11,0,0,1,179.87,130l-4.45,12.42a76.06,76.06,0,0,0-29.53-6.38q-11.33,0-17.7,4.87t-6.38,13.51a20.7,20.7,0,0,0,2.35,10.45,22.09,22.09,0,0,0,7.93,7.47q5.58,3.4,17.07,7.51,19.3,6.88,26.55,14.77T183,215.11"/><path class="cls-1" d="M260.58,136.08q-20.22,0-31.92,13.46T217,186.42q0,24.08,11.29,37.21t32.17,13.13q12.84,0,29.28-4.61v12.5q-12.75,4.78-31.46,4.78-27.1,0-41.82-16.45t-14.72-46.73q0-19,7.09-33.22a50.86,50.86,0,0,1,20.47-22q13.38-7.72,31.5-7.72,19.3,0,33.73,7l-6,12.25a65,65,0,0,0-27.85-6.54"/><path class="cls-1" d="M330.72,196.74v51H316.45V125.09H350.1q22.57,0,33.35,8.64t10.78,26q0,24.33-24.67,32.89l33.31,55.12H386l-29.7-51m-25.59-12.25h19.55q15.1,0,22.15-6t7-18q0-12.16-7.17-17.53t-23-5.37H330.72Z"/><rect class="cls-1" x="422.67" y="125.09" width="14.26" height="122.66"/><path class="cls-1" d="M540.63,125.09H556L511.77,247.75H497.67l-44-122.66h15.1L497,204.46a223,223,0,0,1,7.72,26.6A222.27,222.27,0,0,1,512.6,204"/><path class="cls-1" d="M649.95,247.75l-15.27-39H585.51l-15.1,39H556l48.49-123.16h12l48.24,123.16m-48-132.48h-9.23a125.33,125.33,0,0,1-12.92-12.42,100.25,100.25,0,0,1-10.82-13.34V87.76h17a122.57,122.57,0,0,0,7.47,13.38,116,116,0,0,0,8.47,12Zm13.51,80.63-14.26-38q-2.77-7.21-5.71-17.7a158.73,158.73,0,0,1-5.28,17.7l-14.43,38Z"/><polyline class="cls-2" points="39.43 234.64 31.04 247.84 35.51 247.84 43.9 234.64"/><polyline class="cls-2" points="37.24 234.64 32.77 234.64 24.38 247.84 28.85 247.84"/><polyline class="cls-2" points="40.85 176.74 32.46 189.94 36.93 189.94 45.33 176.74"/><polyline class="cls-2" points="40.83 124.67 32.44 137.87 36.91 137.87 45.3 124.67"/></g></g></svg>